<?xml version="1.0" standalone="no"?>
<!DOCTYPE svg PUBLIC "-//W3C//DTD SVG 20010904//EN"
 "http://www.w3.org/TR/2001/REC-SVG-20010904/DTD/svg10.dtd">
<svg version="1.0" xmlns="http://www.w3.org/2000/svg"
 width="512.000000pt" height="512.000000pt" viewBox="0 0 512.000000 512.000000"
 preserveAspectRatio="xMidYMid meet">
<metadata>
Created by potrace 1.14, written by Peter Selinger 2001-2017
</metadata>
<g transform="translate(0.000000,512.000000) scale(0.100000,-0.100000)"
fill="#000000" stroke="none">
<path d="M4209 5116 c-2 -2 -28 -7 -57 -10 -209 -25 -490 -121 -784 -269 -104
-53 -174 -82 -189 -80 -13 2 -49 8 -79 13 -137 25 -481 34 -630 17 -324 -38
-615 -130 -885 -280 -77 -43 -275 -173 -317 -209 -14 -13 -46 -39 -70 -58 -23
-19 -94 -86 -156 -149 -360 -364 -594 -843 -656 -1346 -3 -22 -8 -65 -12 -95
-7 -59 -8 -381 0 -416 2 -11 7 -54 11 -95 4 -40 9 -77 11 -81 2 -4 7 -26 10
-50 3 -24 7 -45 7 -48 1 -3 -42 -93 -95 -200 -142 -289 -203 -458 -253 -703
-67 -332 -10 -644 153 -845 59 -73 97 -106 162 -141 97 -52 181 -69 321 -66
68 2 136 6 150 9 246 56 512 162 737 295 29 17 55 31 58 31 3 0 32 18 65 40
33 22 62 40 65 40 2 0 23 12 47 27 23 14 59 37 80 50 277 172 590 389 817 566
106 83 322 261 361 297 8 8 33 30 55 49 174 150 511 484 654 651 12 14 34 39
50 56 218 241 525 668 706 984 160 278 382 746 447 940 101 305 108 550 20
725 -53 106 -176 219 -303 277 -111 51 -200 70 -356 74 -78 2 -143 2 -145 0z
m236 -250 c162 -26 298 -113 354 -229 36 -73 41 -99 42 -192 0 -144 -52 -329
-157 -552 -33 -71 -47 -86 -57 -60 -10 27 -145 185 -236 276 -219 219 -512
413 -785 521 l-58 23 63 29 c229 105 438 168 629 190 38 5 160 1 205 -6z
m-3868 -3396 c50 -113 130 -257 186 -340 145 -212 320 -398 518 -551 57 -45
108 -85 113 -89 10 -10 -246 -136 -365 -179 -210 -76 -395 -90 -504 -36 -103
50 -198 193 -228 345 -17 82 -20 249 -7 320 5 25 11 65 15 89 12 80 102 365
125 396 4 6 11 21 15 33 4 13 21 54 38 90 l31 66 12 -30 c7 -16 30 -67 51
-114z"/>
<path d="M4915 3022 c-87 -154 -309 -507 -335 -532 -3 -3 -34 -45 -69 -95 -56
-78 -203 -271 -252 -330 -342 -412 -755 -816 -1172 -1145 -11 -8 -24 -20 -31
-25 -6 -6 -74 -58 -151 -116 -247 -185 -542 -385 -798 -540 -43 -26 -74 -49
-69 -53 14 -8 198 -53 267 -65 118 -20 131 -22 205 -28 98 -9 311 -9 427 0
282 22 606 116 863 250 523 274 916 711 1125 1252 40 104 95 290 110 370 39
220 48 316 47 490 -1 167 -13 293 -47 464 -11 60 -48 197 -54 203 -3 3 -33
-41 -66 -100z"/>
</g>
</svg>
